<svg width="672" height="346" viewBox="0 0 672 346" fill="none" xmlns="http://www.w3.org/2000/svg">
<path d="M86 86.4223H146.449C169.838 86.5804 187.38 96.2996 199.075 115.58C203.263 122.059 205.91 128.855 207.016 135.967C207.885 143.078 208.32 155.366 208.32 172.829C208.32 191.398 207.648 204.357 206.305 211.705C205.673 215.419 204.725 218.738 203.46 221.662C202.117 224.506 200.497 227.47 198.601 230.551C193.544 238.69 186.511 245.407 177.503 250.701C168.574 256.39 157.63 259.235 144.671 259.235H86V86.4223ZM112.194 234.463H143.486C158.183 234.463 168.85 229.445 175.488 219.41C178.412 215.696 180.269 210.994 181.059 205.305C181.77 199.695 182.125 189.185 182.125 173.777C182.125 158.763 181.77 148.017 181.059 141.537C180.111 135.058 177.859 129.803 174.303 125.773C167.033 115.738 156.761 110.878 143.486 111.194H112.194V234.463Z" fill="#282624"/>
<path d="M219.488 172.829C219.488 152.758 220.08 139.325 221.266 132.529C222.53 125.734 224.466 120.242 227.074 116.054C231.262 108.073 237.978 100.962 247.223 94.7192C256.31 88.3978 267.649 85.158 281.24 85C294.99 85.158 306.447 88.3978 315.613 94.7192C324.7 100.962 331.259 108.073 335.289 116.054C338.213 120.242 340.227 125.734 341.334 132.529C342.361 139.325 342.875 152.758 342.875 172.829C342.875 192.583 342.361 205.937 341.334 212.891C340.227 219.844 338.213 225.415 335.289 229.603C331.259 237.584 324.7 244.616 315.613 250.701C306.447 257.022 294.99 260.341 281.24 260.657C267.649 260.341 256.31 257.022 247.223 250.701C237.978 244.616 231.262 237.584 227.074 229.603C225.809 226.995 224.664 224.506 223.636 222.136C222.688 219.686 221.898 216.605 221.266 212.891C220.08 205.937 219.488 192.583 219.488 172.829ZM245.801 172.829C245.801 189.817 246.433 201.315 247.697 207.32C248.804 213.325 251.056 218.185 254.453 221.899C257.219 225.455 260.854 228.339 265.358 230.551C269.783 233.159 275.077 234.463 281.24 234.463C287.483 234.463 292.896 233.159 297.479 230.551C301.825 228.339 305.301 225.455 307.909 221.899C311.307 218.185 313.638 213.325 314.902 207.32C316.087 201.315 316.68 189.817 316.68 172.829C316.68 155.84 316.087 144.264 314.902 138.1C313.638 132.253 311.307 127.472 307.909 123.758C305.301 120.203 301.825 117.239 297.479 114.869C292.896 112.577 287.483 111.353 281.24 111.194C275.077 111.353 269.783 112.577 265.358 114.869C260.854 117.239 257.219 120.203 254.453 123.758C251.056 127.472 248.804 132.253 247.697 138.1C246.433 144.264 245.801 155.84 245.801 172.829Z" fill="#282624"/>
<path d="M436.656 197.364L411.647 121.862H411.173L386.163 197.364H436.656ZM444.123 220.595H378.578L365.303 259.235H337.567L400.387 86.4223H422.314L485.133 259.235H457.517L444.123 220.595Z" fill="#282624"/>
<path d="M506.824 222.847C509.273 226.087 512.434 228.734 516.306 230.788C520.178 233.238 524.721 234.463 529.937 234.463C536.89 234.621 543.528 232.211 549.849 227.233C552.931 224.783 555.341 221.543 557.079 217.513C558.897 213.641 559.806 208.782 559.806 202.934V86.4223H586V205.542C585.684 222.926 579.995 236.359 568.932 245.841C557.949 255.56 545.187 260.499 530.648 260.657C510.577 260.183 495.603 252.676 485.726 238.137L506.824 222.847Z" fill="#282624"/>
</svg>
