<svg width="200" height="104" viewBox="0 0 200 104" fill="none" xmlns="http://www.w3.org/2000/svg">
<rect width="200" height="104" fill="black"/>
<path d="M26 26.4219H43.9297C50.8672 26.4688 56.0703 29.3516 59.5391 35.0703C60.7812 36.9922 61.5664 39.0078 61.8945 41.1172C62.1523 43.2266 62.2812 46.8711 62.2812 52.0508C62.2812 57.5586 62.082 61.4023 61.6836 63.582C61.4961 64.6836 61.2148 65.668 60.8398 66.5352C60.4414 67.3789 59.9609 68.2578 59.3984 69.1719C57.8984 71.5859 55.8125 73.5781 53.1406 75.1484C50.4922 76.8359 47.2461 77.6797 43.4023 77.6797H26V26.4219ZM33.7695 70.332H43.0508C47.4102 70.332 50.5742 68.8438 52.543 65.8672C53.4102 64.7656 53.9609 63.3711 54.1953 61.6836C54.4062 60.0195 54.5117 56.9023 54.5117 52.332C54.5117 47.8789 54.4062 44.6914 54.1953 42.7695C53.9141 40.8477 53.2461 39.2891 52.1914 38.0938C50.0352 35.1172 46.9883 33.6758 43.0508 33.7695H33.7695V70.332Z" fill="white"/>
<path d="M65.5938 52.0508C65.5938 46.0977 65.7695 42.1133 66.1211 40.0977C66.4961 38.082 67.0703 36.4531 67.8438 35.2109C69.0859 32.8438 71.0781 30.7344 73.8203 28.8828C76.5156 27.0078 79.8789 26.0469 83.9102 26C87.9883 26.0469 91.3867 27.0078 94.1055 28.8828C96.8008 30.7344 98.7461 32.8438 99.9414 35.2109C100.809 36.4531 101.406 38.082 101.734 40.0977C102.039 42.1133 102.191 46.0977 102.191 52.0508C102.191 57.9102 102.039 61.8711 101.734 63.9336C101.406 65.9961 100.809 67.6484 99.9414 68.8906C98.7461 71.2578 96.8008 73.3438 94.1055 75.1484C91.3867 77.0234 87.9883 78.0078 83.9102 78.1016C79.8789 78.0078 76.5156 77.0234 73.8203 75.1484C71.0781 73.3438 69.0859 71.2578 67.8438 68.8906C67.4688 68.1172 67.1289 67.3789 66.8242 66.6758C66.543 65.9492 66.3086 65.0352 66.1211 63.9336C65.7695 61.8711 65.5938 57.9102 65.5938 52.0508ZM73.3984 52.0508C73.3984 57.0898 73.5859 60.5 73.9609 62.2812C74.2891 64.0625 74.957 65.5039 75.9648 66.6055C76.7852 67.6602 77.8633 68.5156 79.1992 69.1719C80.5117 69.9453 82.082 70.332 83.9102 70.332C85.7617 70.332 87.3672 69.9453 88.7266 69.1719C90.0156 68.5156 91.0469 67.6602 91.8203 66.6055C92.8281 65.5039 93.5195 64.0625 93.8945 62.2812C94.2461 60.5 94.4219 57.0898 94.4219 52.0508C94.4219 47.0117 94.2461 43.5781 93.8945 41.75C93.5195 40.0156 92.8281 38.5977 91.8203 37.4961C91.0469 36.4414 90.0156 35.5625 88.7266 34.8594C87.3672 34.1797 85.7617 33.8164 83.9102 33.7695C82.082 33.8164 80.5117 34.1797 79.1992 34.8594C77.8633 35.5625 76.7852 36.4414 75.9648 37.4961C74.957 38.5977 74.2891 40.0156 73.9609 41.75C73.5859 43.5781 73.3984 47.0117 73.3984 52.0508Z" fill="white"/>
<path d="M130.008 59.3281L122.59 36.9336H122.449L115.031 59.3281H130.008ZM132.223 66.2188H112.781L108.844 77.6797H100.617L119.25 26.4219H125.754L144.387 77.6797H136.195L132.223 66.2188Z" fill="white"/>
<path d="M150.82 66.8867C151.547 67.8477 152.484 68.6328 153.633 69.2422C154.781 69.9688 156.129 70.332 157.676 70.332C159.738 70.3789 161.707 69.6641 163.582 68.1875C164.496 67.4609 165.211 66.5 165.727 65.3047C166.266 64.1562 166.535 62.7148 166.535 60.9805V26.4219H174.305V61.7539C174.211 66.9102 172.523 70.8945 169.242 73.707C165.984 76.5898 162.199 78.0547 157.887 78.1016C151.934 77.9609 147.492 75.7344 144.562 71.4219L150.82 66.8867Z" fill="white"/>
</svg>
