<svg xmlns="http://www.w3.org/2000/svg" fill="none" class="header__logo" viewBox="0 0 800 173" class="header__logo">
  <path fill="#982E0A" d="M119.083 172.671c47.682 0 86.336-38.654 86.336-86.335V0c-47.682 0-86.336 38.654-86.336 86.336v86.335Z"/>
  <path fill="#FD5A3B" d="M59.541 172.671c47.682 0 86.336-38.654 86.336-86.335V0C98.195 0 59.541 38.654 59.541 86.336v86.335Z"/>
  <path fill="#FA9A87" d="M0 172.671c47.682 0 86.336-38.654 86.336-86.335V0C38.653 0 0 38.654 0 86.336v86.335Z"/>
  <path fill="#fff" d="M248.587 3.32v166.031h56.924c44.591 0 68.31-22.059 68.31-67.361V70.681c0-45.302-23.719-67.36-68.31-67.36h-56.924Zm31.308 28.463h26.091c26.802 0 36.526 13.757 36.526 37.95v33.206c0 24.193-9.724 37.949-36.526 37.949h-26.091V31.783ZM392.846 68.784v35.103c0 43.642 25.853 68.784 68.309 68.784 42.456 0 68.31-25.142 68.31-68.784V68.784C529.465 26.328 503.611 0 461.155 0s-68.309 26.328-68.309 68.784Zm31.308-1.423c0-22.533 13.046-39.373 37.001-39.373 23.244 0 37.001 15.891 37.001 39.373v37.949c0 23.007-11.148 39.373-37.001 39.373-25.141 0-37.001-15.417-37.001-39.373V67.36ZM584.277 3.32l-46.014 166.031h32.257l9.962-37.001h57.873l9.962 37.001h32.257L634.56 3.321h-50.283Zm3.558 100.567 20.16-74.476h2.847l20.16 74.476h-43.167ZM800.001 3.32h-31.309v116.222c0 15.654-8.064 24.667-22.058 24.667-14.943 0-23.481-9.25-23.481-24.667v-15.655h-31.309v15.655c0 33.443 21.584 53.129 55.739 53.129 32.494 0 52.418-18.737 52.418-53.129V3.321Z"/>
</svg>