<svg xmlns="http://www.w3.org/2000/svg" fill="none" viewBox="0 0 1428 328" class="header__logo">
  <defs/>
  <path fill="#fff" d="M498.314 2.645h112.397c43.489.293 76.107 18.365 97.851 54.215 7.787 12.047 12.709 24.683 14.766 37.906 1.616 13.223 2.424 36.07 2.424 68.54 0 34.527-1.249 58.622-3.746 72.286-1.176 6.906-2.939 13.076-5.29 18.512-2.497 5.29-5.509 10.799-9.035 16.529-9.403 15.134-22.48 27.622-39.229 37.466-16.602 10.578-36.951 15.868-61.047 15.868H498.314V2.645zm48.706 275.261h58.181c27.328 0 47.163-9.33 59.504-27.989 5.437-6.905 8.889-15.647 10.359-26.226 1.322-10.431 1.983-29.972 1.983-58.622 0-27.916-.661-47.897-1.983-59.945-1.763-12.048-5.951-21.818-12.562-29.311-13.517-18.66-32.617-27.696-57.301-27.108H547.02v229.201zM746.517 163.306c0-37.319 1.102-62.296 3.306-74.931 2.351-12.636 5.951-22.847 10.799-30.634 7.787-14.84 20.276-28.062 37.466-39.67C814.984 6.319 836.067.295 861.338 0c25.565.294 46.869 6.318 63.912 18.072 16.896 11.607 29.091 24.83 36.584 39.669 5.436 7.787 9.183 17.998 11.24 30.634 1.91 12.635 2.865 37.612 2.865 74.931 0 36.731-.955 61.561-2.865 74.49-2.057 12.929-5.804 23.287-11.24 31.074-7.493 14.84-19.688 27.916-36.584 39.229-17.043 11.754-38.347 17.925-63.912 18.512-25.271-.587-46.354-6.758-63.25-18.512-17.19-11.313-29.679-24.389-37.466-39.229a359.233 359.233 0 01-6.391-13.884c-1.763-4.555-3.232-10.285-4.408-17.19-2.204-12.929-3.306-37.759-3.306-74.49zm48.926 0c0 31.588 1.175 52.966 3.526 64.132 2.057 11.166 6.244 20.202 12.562 27.107 5.143 6.612 11.901 11.975 20.276 16.088 8.227 4.849 18.071 7.273 29.531 7.273 11.607 0 21.672-2.424 30.193-7.273 8.081-4.113 14.546-9.476 19.394-16.088 6.318-6.905 10.652-15.941 13.003-27.107 2.204-11.166 3.306-32.544 3.306-64.132 0-31.589-1.102-53.113-3.306-64.573-2.351-10.873-6.685-19.761-13.003-26.667-4.848-6.612-11.313-12.121-19.394-16.529-8.521-4.26-18.586-6.538-30.193-6.832-11.46.294-21.304 2.571-29.531 6.832-8.375 4.408-15.133 9.917-20.276 16.53-6.318 6.905-10.505 15.793-12.562 26.666-2.351 11.46-3.526 32.984-3.526 64.573zM1150.31 208.925l-46.5-140.385h-.88l-46.5 140.385h93.88zm13.89 43.196h-121.88l-24.68 71.846h-51.57l116.8-321.322h40.78l116.8 321.322h-51.35l-24.9-71.846zM1280.78 256.308c4.56 6.024 10.43 10.946 17.63 14.766 7.2 4.555 15.65 6.832 25.35 6.832 12.93.294 25.27-4.187 37.02-13.443 5.73-4.555 10.21-10.579 13.44-18.072 3.38-7.199 5.07-16.235 5.07-27.107V2.644H1428v221.488c-.59 32.323-11.17 57.3-31.74 74.931-20.42 18.072-44.15 27.254-71.18 27.548-37.32-.881-65.16-14.839-83.53-41.873l39.23-28.43z"/>
  <path fill="#982E0A" d="M223.961 327.4c89.676 0 162.372-72.696 162.372-162.372V2.655c-89.676 0-162.372 72.697-162.372 162.373V327.4z"/>
  <path fill="#FD5A3B" d="M111.98 327.4c89.676 0 162.373-72.696 162.373-162.372V2.655c-89.676 0-162.373 72.697-162.373 162.373V327.4z"/>
  <path fill="#FA9A87" d="M0 327.401c89.676 0 162.372-72.697 162.372-162.373V2.656C72.696 2.656 0 75.352 0 165.028v162.373z"/>
</svg>
